<?xml version="1.0" standalone="no"?>
<!DOCTYPE svg PUBLIC "-//W3C//DTD SVG 20010904//EN"
 "http://www.w3.org/TR/2001/REC-SVG-20010904/DTD/svg10.dtd">
<svg version="1.0" xmlns="http://www.w3.org/2000/svg"
 width="128.000000pt" height="128.000000pt" viewBox="0 0 128.000000 128.000000"
 preserveAspectRatio="xMidYMid meet">
<metadata>
Created by potrace 1.16, written by Peter Selinger 2001-2019
</metadata>
<g transform="translate(0.000000,128.000000) scale(0.100000,-0.100000)"
fill="#000000" stroke="none">
<path d="M610 1070 c-604 -207 -605 -207 -605 -235 0 -27 7 -30 290 -139 l290
-111 126 -290 c115 -266 127 -290 151 -293 31 -4 2 -83 248 689 93 296 170
549 170 563 0 23 -4 26 -32 25 -18 -1 -305 -95 -638 -209z m255 -160 l-261
-261 -224 87 c-124 47 -230 89 -237 93 -9 5 941 338 972 340 5 1 -107 -116
-250 -259z m165 -276 c-89 -280 -165 -512 -169 -517 -4 -4 -55 104 -114 240
l-106 248 272 272 c149 150 273 271 275 269 2 -2 -70 -233 -158 -512z"/>
<path d="M102 457 c-101 -101 -122 -137 -86 -151 24 -9 41 4 147 112 88 90 97
103 87 121 -6 12 -19 21 -28 21 -10 0 -63 -46 -120 -103z"/>
<path d="M202 248 c-142 -143 -202 -210 -202 -226 0 -16 6 -22 23 -22 16 0 81
59 227 205 176 176 203 208 194 223 -6 9 -17 18 -25 20 -8 1 -105 -89 -217
-200z"/>
<path d="M418 163 c-55 -54 -104 -106 -109 -115 -13 -24 -1 -48 24 -48 26 0
227 196 227 222 0 9 -9 22 -21 28 -18 10 -31 1 -121 -87z"/>
</g>
</svg>
