<?xml version="1.0" standalone="no"?>
<!DOCTYPE svg PUBLIC "-//W3C//DTD SVG 20010904//EN"
 "http://www.w3.org/TR/2001/REC-SVG-20010904/DTD/svg10.dtd">
<svg version="1.0" xmlns="http://www.w3.org/2000/svg"
 width="1841.000000pt" height="601.000000pt" viewBox="0 0 1841.000000 601.000000"
 preserveAspectRatio="xMidYMid meet">

<g transform="translate(0.000000,601.000000) scale(0.100000,-0.100000)"
fill="#000000" stroke="none">
<path d="M10490 4656 c-237 -50 -404 -181 -459 -361 -84 -270 18 -517 261
-634 46 -22 169 -69 274 -104 204 -69 253 -91 303 -133 43 -36 61 -74 61 -129
0 -79 -45 -137 -124 -160 -142 -42 -264 12 -307 137 l-18 53 -242 3 -242 2 6
-57 c26 -249 223 -439 515 -498 64 -13 119 -16 240 -13 136 4 168 8 237 31
145 48 256 129 329 239 102 153 115 391 29 538 -74 127 -210 212 -498 310
-301 103 -365 149 -365 260 0 94 53 152 151 165 109 15 214 -47 242 -143 l14
-47 244 0 244 0 -3 45 c-5 72 -38 171 -80 235 -73 114 -198 201 -352 245 -96
28 -359 37 -460 16z"/>
<path d="M16988 4660 c-261 -47 -446 -197 -492 -400 -44 -191 -3 -367 112
-485 90 -92 175 -134 457 -227 217 -71 295 -115 326 -182 25 -54 24 -92 -3
-146 -34 -68 -90 -95 -193 -95 -67 0 -87 4 -125 25 -51 29 -86 76 -103 138
l-11 42 -244 0 -243 0 6 -47 c30 -228 164 -390 391 -472 116 -42 210 -54 381
-49 128 4 159 9 232 33 281 95 440 336 401 612 -14 100 -46 170 -112 239 -95
101 -175 143 -463 244 -250 87 -326 135 -341 215 -10 58 4 106 45 146 108 109
315 52 352 -97 l11 -44 246 0 245 0 -6 59 c-24 229 -193 409 -447 476 -74 20
-344 29 -422 15z"/>
<path d="M6820 3710 l0 -940 225 0 225 0 0 355 0 356 57 -3 57 -3 194 -352
194 -353 255 0 c239 0 255 1 248 18 -3 9 -99 176 -212 370 -113 194 -204 354
-202 355 2 2 35 16 73 32 209 87 336 280 336 515 0 262 -158 471 -412 549
-107 32 -244 41 -654 41 l-384 0 0 -940z m855 537 c86 -38 128 -106 128 -207
0 -110 -45 -184 -132 -217 -38 -15 -78 -18 -221 -18 l-175 0 -3 220 c-1 121 0
226 3 233 8 22 346 12 400 -11z"/>
<path d="M8580 3710 l0 -940 575 0 575 0 0 185 0 185 -345 0 -345 0 0 205 0
205 305 0 305 0 0 175 0 175 -305 0 -305 0 0 190 0 190 345 0 345 0 0 185 0
185 -575 0 -575 0 0 -940z"/>
<path d="M11712 4003 l4 -648 27 -90 c83 -268 268 -435 546 -490 105 -22 353
-16 446 10 233 64 423 236 496 449 45 132 49 195 49 827 l0 589 -230 0 -229 0
-3 -622 -3 -623 -24 -53 c-32 -70 -103 -134 -176 -157 -88 -27 -223 -18 -293
20 -57 31 -99 76 -128 140 -18 37 -19 82 -24 665 l-5 625 -228 3 -228 2 3
-647z"/>
<path d="M13625 4638 c-3 -7 -4 -429 -3 -938 l3 -925 528 -3 527 -2 0 180 0
180 -300 0 -300 0 0 760 0 760 -225 0 c-171 0 -227 -3 -230 -12z"/>
<path d="M14820 4465 l0 -185 250 0 250 0 0 -755 0 -755 225 0 225 0 0 755 0
755 250 0 250 0 0 185 0 185 -725 0 -725 0 0 -185z"/>
<path d="M4224 2802 c-201 -197 -262 -275 -313 -399 -52 -126 -66 -205 -65
-353 2 -159 21 -246 86 -384 l42 -88 161 5 c123 4 178 10 235 27 175 50 313
123 434 226 39 34 316 308 616 608 l545 546 -775 0 -775 0 -191 -188z"/>
<path d="M1962 2727 c-187 -209 -252 -305 -307 -459 -118 -330 -71 -714 121
-986 26 -37 165 -184 308 -328 216 -216 276 -270 345 -312 183 -111 321 -152
541 -159 132 -4 170 -2 258 16 245 51 420 154 613 362 l103 110 -935 935
c-514 514 -937 934 -940 934 -3 0 -52 -51 -107 -113z"/>
<path d="M11780 2217 c-75 -22 -141 -60 -194 -112 -189 -186 -180 -508 18
-682 135 -119 336 -143 506 -61 87 42 152 110 198 206 37 76 37 78 37 202 -1
105 -4 134 -23 180 -44 111 -143 209 -252 251 -68 27 -223 35 -290 16z m257
-117 c62 -26 135 -100 165 -167 18 -40 22 -67 22 -158 1 -98 -2 -116 -25 -165
-57 -123 -143 -181 -275 -188 -133 -7 -230 38 -292 136 -112 175 -66 424 98
525 83 51 212 59 307 17z"/>
<path d="M16656 2219 c-61 -15 -154 -69 -202 -117 -58 -58 -111 -168 -123
-256 -51 -365 264 -619 620 -501 85 29 165 99 214 188 l26 47 -75 0 c-45 0
-76 -4 -76 -10 0 -19 -83 -101 -125 -123 -33 -18 -57 -22 -140 -22 -89 0 -106
3 -151 27 -131 69 -199 222 -173 388 26 163 138 272 293 287 113 10 211 -32
276 -120 l35 -47 67 0 68 0 -10 26 c-33 85 -130 177 -227 215 -65 25 -229 35
-297 18z"/>
<path d="M6820 1770 l0 -450 55 0 55 0 0 450 0 450 -55 0 -55 0 0 -450z"/>
<path d="M7170 1770 l0 -450 60 0 60 0 2 354 3 353 231 -351 231 -351 62 -3
61 -3 0 451 0 450 -60 0 -60 0 -2 -352 -3 -352 -232 352 -232 352 -61 0 -60 0
0 -450z"/>
<path d="M8500 1771 l0 -451 60 0 60 0 0 189 0 189 148 4 c141 3 149 5 201 33
61 33 94 72 116 134 44 126 -12 264 -133 323 -44 21 -61 23 -249 26 l-203 4 0
-451z m398 329 c57 -26 87 -89 78 -164 -12 -105 -64 -137 -237 -144 l-119 -5
0 167 0 166 118 0 c94 0 125 -4 160 -20z"/>
<path d="M9280 1770 l0 -450 245 0 245 0 0 50 0 50 -185 0 -185 0 0 155 0 155
165 0 165 0 0 50 0 50 -165 0 -166 0 3 148 3 147 183 3 182 2 0 45 0 45 -245
0 -245 0 0 -450z"/>
<path d="M9980 1771 l0 -451 60 0 60 0 0 185 0 186 72 -3 72 -3 106 -182 105
-183 72 0 72 0 -104 174 c-58 95 -107 180 -110 189 -5 11 4 18 29 27 104 34
169 130 168 250 0 114 -47 185 -152 234 -40 18 -68 21 -247 24 l-203 4 0 -451z
m400 331 c19 -9 45 -33 58 -52 20 -30 23 -45 20 -102 -7 -126 -60 -162 -238
-163 l-115 0 -3 168 -2 167 122 0 c97 0 130 -4 158 -18z"/>
<path d="M10810 1770 l0 -450 55 0 55 0 2 203 3 202 158 3 157 3 0 44 0 44
-157 3 -158 3 0 150 0 150 193 3 192 2 0 45 0 45 -250 0 -250 0 0 -450z"/>
<path d="M12550 1770 l0 -450 55 0 55 0 2 183 3 182 70 3 70 2 104 -181 c58
-100 110 -183 116 -186 7 -2 39 -3 73 -1 l60 3 -108 180 c-60 99 -109 183
-110 186 0 3 25 16 55 28 174 72 207 325 57 438 -70 53 -122 63 -324 63 l-178
0 0 -450z m377 339 c106 -40 133 -191 49 -275 -40 -40 -111 -56 -227 -52 l-84
3 -3 168 -2 167 119 0 c66 0 132 -5 148 -11z"/>
<path d="M14626 1782 c-87 -240 -161 -443 -163 -449 -4 -10 12 -13 58 -13 l64
0 35 100 34 100 197 0 197 0 35 -97 35 -98 62 -3 c56 -3 62 -1 58 15 -4 15
-294 815 -313 866 -6 14 -20 17 -74 17 l-66 0 -159 -438z m381 -159 c-3 -2
-74 -2 -160 -1 l-155 3 74 205 c41 113 77 212 80 220 3 8 41 -81 85 -204 44
-121 78 -221 76 -223z"/>
<path d="M15420 1770 l0 -450 60 0 60 0 2 355 3 355 234 -355 234 -355 58 0
59 0 0 450 0 450 -60 0 -60 0 0 -352 0 -353 -233 352 -232 352 -62 1 -63 0 0
-450z"/>
<path d="M17400 1770 l0 -450 245 0 245 0 0 50 0 50 -185 0 -185 0 0 155 0
155 166 0 165 0 -3 48 -3 47 -162 3 -163 2 0 150 0 150 185 0 185 0 0 45 0 45
-245 0 -245 0 0 -450z"/>
<path d="M13370 1765 l0 -445 60 0 60 0 2 322 3 323 144 -323 144 -322 41 0
42 0 144 325 145 325 3 -325 2 -325 60 0 60 0 0 445 0 446 -66 -3 -65 -3 -159
-355 c-87 -195 -162 -354 -167 -353 -4 0 -79 161 -166 357 l-160 356 -63 0
-64 0 0 -445z"/>
</g>
</svg>
