<?xml version="1.0" encoding="UTF-8"?> <svg xmlns="http://www.w3.org/2000/svg" xmlns:xlink="http://www.w3.org/1999/xlink" version="1.1" id="Layer_1" x="0px" y="0px" viewBox="0 0 276.9 54.6" style="enable-background:new 0 0 276.9 54.6;" xml:space="preserve"> <style type="text/css"> .st0{fill:#004990;} .st1{fill:#00B4AA;} .st2{fill:#0083BF;} </style> <g> <g> <path class="st0" d="M8.7,41.7c-4.2,0-7.2-2.4-7.2-6.5v-3h5.7v3c0,1,0.7,1.6,1.5,1.6c1,0,1.6-0.7,1.6-2.2c0-1.2-0.4-2.3-1.2-3.1 l-4.7-4.7c-1.6-1.6-2.6-3.5-2.6-6.9c0-4.6,2.3-7.1,6.8-7.1c4.2,0,6.7,2.4,6.7,6.5v3H9.9v-3c0-0.9-0.4-1.6-1.3-1.6s-1.4,1-1.4,2.3 c0,1.2,0.3,2.2,1,2.9l4.7,4.7c1.6,1.6,2.7,3.5,2.7,6.9C15.7,39.1,13.2,41.7,8.7,41.7z"></path> <path class="st0" d="M33.7,41.4V25.5c0-1-0.5-1.6-1.2-1.6c-0.7,0-1.2,0.6-1.2,1.6v15.9h-5.6V25.5c0-1-0.5-1.6-1.2-1.6 s-1.2,0.6-1.2,1.6v15.9h-5.7V19.2h5.5v1.4c0.6-1,1.8-1.7,3.1-1.7c2.1,0,3.3,0.6,4,2.2c0.8-1.5,2.3-2.2,4.1-2.2 c3.3,0,5.1,2.1,5.1,6.2v16.4L33.7,41.4L33.7,41.4z"></path> <path class="st0" d="M41.7,17.4v-5h5.7v5H41.7z M41.7,41.4V19.2h5.7v22.2H41.7z"></path> <path class="st0" d="M56.2,24.3v9.9c0,1.9,1,2.4,2.9,2.2v5.1c-6,0.4-8.6-1.4-8.6-6.8V24.4h-1.7v-5.2h1.7v-5.3h5.7v5.3h3.1v5.1 H56.2z"></path> <path class="st0" d="M68.7,41.4V25.5c0-1-0.5-1.6-1.2-1.6s-1.2,0.6-1.2,1.6v15.9h-5.7V11.5h5.7v8.9c0.6-0.9,1.7-1.6,2.9-1.6 c3.3,0,5.1,2.1,5.1,6.2v16.4L68.7,41.4L68.7,41.4z"></path> <path class="st0" d="M100.1,41.4V28.1c0-2.7,0.2-5.7,0.2-5.7h-0.1l-3.3,19.1h-4.5L89,22.4h-0.1c0,0,0.2,3.1,0.2,5.7v13.3h-5.3 V13.2h7.9l2,13.4c0.4,2.5,0.9,6.5,0.9,6.5h0.1c0,0,0.3-4,0.7-6.5l2.2-13.4h7.9v28.2H100.1z"></path> <path class="st0" d="M116,41.4c0-0.4-0.2-1.2-0.2-1.7c-0.6,1.2-2,2-3.6,2c-3.2,0-5.1-2-5.1-5.8s1.8-5.6,5.3-6.9 c2.4-0.9,3.1-1.6,3.1-3.1v-0.6c0-0.9-0.3-1.5-1-1.5s-1.1,0.6-1.1,1.5v1.5H108V25c0-3.9,2.2-6.2,6.4-6.2s6.4,2.2,6.4,6.2v8.2 c0,4.6,0,6.1,0.4,8.2L116,41.4L116,41.4z M115.4,31.8c0,0-0.5,0.3-1,0.6c-1.3,0.6-1.8,1.2-1.8,2.8c0,1,0.5,1.6,1.3,1.6 c0.9,0,1.4-0.6,1.4-1.9v-3.1H115.4z"></path> <path class="st0" d="M129.5,41.8c-4.3,0-6.7-2.7-6.7-6.6v-1.4h5.4v1.1c0,1.6,0.5,2,1.3,2s1.3-0.5,1.3-1.9c0-1.6-0.9-2.1-3.3-3.2 c-3-1.4-4.5-3.2-4.5-6.6c0-3.8,2.1-6.6,6.6-6.6c4.4,0,6.5,2.8,6.5,6.7v1.1h-5.4v-1c0-1-0.1-2.1-1.1-2.1c-0.8,0-1.2,0.8-1.2,1.9 c0,1.5,0.7,2,3.2,3.2c2.6,1.3,4.7,2.7,4.7,6.5C136.3,38.8,134,41.8,129.5,41.8z"></path> <path class="st0" d="M144.7,41.7c-4.2,0-6.9-2.4-6.9-6.4V25.2c0-4.1,2.7-6.4,6.9-6.4c4.2,0,6.9,2.4,6.9,6.4v10.1 C151.7,39.4,149,41.7,144.7,41.7z M146,25.5c0-1-0.6-1.6-1.3-1.6c-0.7,0-1.3,0.6-1.3,1.6v9.6c0,1,0.6,1.6,1.3,1.6 c0.7,0,1.3-0.6,1.3-1.6V25.5z"></path> <path class="st0" d="M161.9,41.4V25.5c0-1-0.5-1.6-1.2-1.6s-1.2,0.6-1.2,1.6v15.9h-5.7V19.2h5.5v1.4c0.6-1,1.8-1.7,3.1-1.7 c3.3,0,5.1,2.1,5.1,6.2v16.4L161.9,41.4L161.9,41.4z"></path> </g> <g> <path class="st1" d="M186.7,41.4l-0.9-1.5c-1.3,1.3-3.2,1.8-5.4,1.8c-4.7,0-8-2.7-8-8.2v-3.7c0-2.7,1.2-4.8,3.4-6 c-1.1-1.6-2.1-3.6-2.1-5.6c0-4.2,2.5-7,7-7c4.3,0,6.8,2.7,6.8,6.6c0,3.5-2,5.4-4.7,7.1l3.5,6v-4.8h5.1v2.3c0,2.9-0.5,5.5-1.8,7.5 l3.2,5.5L186.7,41.4L186.7,41.4z M178.6,28.3c-0.5,0.5-0.6,1.2-0.6,1.9v3c0,2.2,1.4,3.5,3.3,3.5c0.9,0,1.5-0.3,1.9-0.8L178.6,28.3 z M180.7,16c-1,0-1.4,0.7-1.4,2c0,1,0.6,2.1,1.3,3.2c1-0.8,1.4-1.8,1.4-3C182.1,16.8,181.5,16,180.7,16z"></path> </g> <g> <path class="st0" d="M201.9,41.7c-4.2,0-6.9-2.4-6.9-6.5V19.3c0-4.1,2.7-6.5,6.9-6.5c4.2,0,6.9,2.4,6.9,6.5v3h-5.7v-2.8 c0-1-0.5-1.6-1.2-1.6s-1.2,0.6-1.2,1.6V35c0,1,0.5,1.6,1.2,1.6s1.2-0.6,1.2-1.6v-2.8h5.7v3C208.8,39.3,206.1,41.7,201.9,41.7z"></path> <path class="st0" d="M217.6,41.7c-4.2,0-6.9-2.4-6.9-6.4V25.2c0-4.1,2.7-6.4,6.9-6.4c4.2,0,6.9,2.4,6.9,6.4v10.1 C224.5,39.4,221.8,41.7,217.6,41.7z M218.8,25.5c0-1-0.6-1.6-1.3-1.6s-1.3,0.6-1.3,1.6v9.6c0,1,0.6,1.6,1.3,1.6s1.3-0.6,1.3-1.6 V25.5z"></path> </g> <polygon class="st0" points="261.9,0.7 250.3,0.7 264,27.3 250.3,54 261.9,54 275.6,27.3 "></polygon> <polygon class="st2" points="250.3,0.7 238.7,0.7 252.4,27.3 238.7,54 250.3,54 264,27.3 "></polygon> <polygon class="st1" points="238.7,0.7 227.1,0.7 240.8,27.3 227.1,54 238.7,54 252.4,27.3 "></polygon> </g> </svg> 